# xmcd
# 
# Track frame offsets:
#     150
#     13906
#     23457
#     38162
#     48581
#     57634
#     72960
#     87062
#     93296
#     104848
#     116117
#     127364
#     140990
#     151716
#     162150
#     173320
# 
# Disc length: 2460
# 
# Revision: 0
# Processed by: cddbd v1.5.2PL0 Copyright (c) Steve Scherf et al.
# Submitted via: fre:ac v1.0.17
# 
DISCID=db099a10
DTITLE=Milo Tremley - Kick Ass USA!
DYEAR=2001
DGENRE=Country
TTITLE0=Kick Ass USA
TTITLE1=U.S. Stands For Us
TTITLE2=America Was Born... (With A Gun In Her Hand)
TTITLE3=Country Cookin
TTITLE4=Mayonnaise Farm
TTITLE5=Velvet Elvis
TTITLE6=Matchbook Love
TTITLE7=Sleeping Beauty
TTITLE8=Finger Polka
TTITLE9=Go Ugly Early
TTITLE10=Barf Song
TTITLE11=Montains Of Montana
TTITLE12=Black and Blue
TTITLE13=Water Wars
TTITLE14=Get Outa My Way
TTITLE15=Roadkill
EXTD=James Lee Reeves AKA Milo Tremley
EXTT0=
EXTT1=
EXTT2=
EXTT3=
EXTT4=
EXTT5=
EXTT6=
EXTT7=
EXTT8=
EXTT9=
EXTT10=
EXTT11=
EXTT12=
EXTT13=
EXTT14=
EXTT15=
PLAYORDER=
